<svg viewBox="0 0 8 12" fill="none" xmlns="http://www.w3.org/2000/svg"><path d="M4 1.97c.7 0 1.26.55 1.26 1.24 0 .67-.57 1.23-1.26 1.23-.7 0-1.26-.56-1.26-1.23 0-.69.57-1.24 1.26-1.24Zm0 4.22a3.02 3.02 0 0 0 3.04-2.98 3.02 3.02 0 0 0-3.04-2.99 3.01 3.01 0 0 0-3.04 2.99 3.01 3.01 0 0 0 3.04 2.98Zm1.23 2.43a5.8 5.8 0 0 0 1.77-.72c.41-.25.54-.8.28-1.2a.9.9 0 0 0-1.23-.28 3.93 3.93 0 0 1-4.1 0 .9.9 0 0 0-1.23.28c-.26.4-.13.95.28 1.2a5.8 5.8 0 0 0 1.77.72l-1.7 1.67a.86.86 0 0 0 0 1.23.9.9 0 0 0 1.26 0l1.67-1.64 1.67 1.64a.9.9 0 0 0 1.26 0 .86.86 0 0 0 0-1.23l-1.7-1.67Z" fill="#fff"/></svg>