<svg viewBox="0 0 12 12" fill="none" xmlns="http://www.w3.org/2000/svg"><path d="M7.02.48c-.33 0-.65.18-.85.44-.2.26-.32.58-.4.91a7.84 7.84 0 0 0-.18 1.66c-.94.07-1.8.36-2.51.82a1.5 1.5 0 0 0-.97-.4c-.38 0-.75.18-1.01.53a2 2 0 0 0 .14 2.44c-.04.2-.07.4-.07.62 0 2.22 2.16 4.02 4.83 4.02s4.83-1.8 4.83-4.02c0-.21-.03-.42-.07-.62a2 2 0 0 0 .15-2.44 1.26 1.26 0 0 0-1.01-.53c-.34 0-.69.14-.97.4a5.35 5.35 0 0 0-2.5-.82c0-.5.04-1 .13-1.39.06-.24.13-.42.2-.51.08-.1.14-.14.26-.14.28 0 .31.1.47.32.09.11.18.25.34.4a1 1 0 0 0 .62.25v-.97c-.07 0-.08 0-.12-.04a1.73 1.73 0 0 1-.2-.28c-.2-.25-.56-.65-1.1-.65Zm2.66.1c-.64 0-1.15.6-1.15 1.36 0 .75.51 1.36 1.15 1.36.63 0 1.15-.61 1.15-1.36 0-.76-.52-1.36-1.15-1.36Zm0 .48c.4 0 .74.4.74.88s-.33.87-.74.87-.74-.4-.74-.87c0-.49.33-.88.74-.88Zm-3.68 3.19c2.26 0 4.18 1.49 4.18 3.25s-1.92 3.24-4.18 3.24-4.18-1.48-4.18-3.24c0-1.76 1.92-3.25 4.18-3.25Zm-3.88.44c.11 0 .23.03.34.09-.4.36-.73.79-.96 1.27-.15-.38-.1-.85.08-1.1a.65.65 0 0 1 .54-.26Zm7.76 0c.21 0 .4.09.54.27.19.24.23.71.08 1.09-.23-.48-.55-.9-.96-1.27a.78.78 0 0 1 .34-.1Zm-5.51 1.2c-.41 0-.75.4-.75.88s.34.88.75.88c.4 0 .74-.4.74-.88s-.34-.88-.74-.88Zm3.27 0c-.41 0-.75.4-.75.88s.34.88.75.88c.4 0 .74-.4.74-.88s-.34-.88-.74-.88Zm-3.67 2.98a2.24 2.24 0 0 0 2.03 1.26c.97 0 1.78-.62 2.04-1.26-.47.36-1.21.6-2.04.6-.82 0-1.56-.24-2.03-.6Z" fill="#fff"/></svg>