<svg viewBox="0 0 12 8" fill="none" xmlns="http://www.w3.org/2000/svg"><path d="M11.68 6.47c-.04-.05-.23-.45-1.15-1.27-.97-.86-.84-.72.33-2.2.7-.9.99-1.46.9-1.7-.08-.22-.6-.16-.6-.16h-1.74s-.13 0-.23.05c-.09.05-.15.17-.15.17s-.28.7-.64 1.3c-.78 1.25-1.09 1.32-1.21 1.24-.3-.18-.22-.73-.22-1.12 0-1.21.19-1.72-.38-1.85a3.11 3.11 0 0 0-.81-.08c-.62 0-1.14 0-1.44.14-.2.1-.35.3-.26.31.12.02.38.07.51.25.18.23.18.75.18.75s.1 1.43-.24 1.61c-.24.12-.56-.13-1.25-1.27-.35-.58-.62-1.23-.62-1.23s-.05-.12-.14-.18c-.11-.08-.27-.1-.27-.1h-1.65s-.25.01-.34.12c-.08.09 0 .28 0 .28s1.29 2.89 2.75 4.35c1.34 1.33 2.87 1.24 2.87 1.24h.69s.2-.02.31-.13c.1-.1.1-.29.1-.29s-.02-.88.41-1.01.97.85 1.55 1.23c.44.29.77.23.77.23l1.54-.03s.8-.04.43-.65Z" fill="#fff"/></svg>